<?xml version="1.0" encoding="UTF-8"?>
<svg width="20px" height="20px" viewBox="0 0 20 20" version="1.1" xmlns="http://www.w3.org/2000/svg" xmlns:xlink="http://www.w3.org/1999/xlink">
    <title>ChromeLogo</title>
    <g id="Page-1" stroke="none" stroke-width="1" fill="none" fill-rule="evenodd">
        <g id="browser-chrome-icon" fill="#F5F5FA">
            <path d="M5.04446875,8.72239896 L2.18175,3.7651169 C4.0143125,1.47122241 6.834625,0 9.99925,0 C13.66075,0 16.8608125,1.96761936 18.6033125,4.90265808 L10.4429688,4.90265808 C10.2964063,4.8904708 10.1480313,4.88272095 9.9978125,4.88272095 C7.617875,4.88272095 5.6118125,6.51669031 5.04303125,8.72164897 L5.04453125,8.72239896 L5.04446875,8.72239896 Z M13.5795,6.34875596 L19.31125,6.34875596 C19.7549063,7.48004725 20,8.71246164 20,10.0009375 C20,15.4860221 15.583375,19.9387511 10.1133125,20 L14.2033125,12.9160078 C14.7798437,12.0881483 15.1171875,11.0834797 15.1171875,10.0009375 C15.1171875,8.57252677 14.5284688,7.27848853 13.5795313,6.34875596 L13.5795,6.34875596 Z M6.3669375,10.0009375 C6.3669375,7.99788129 7.996875,6.36869309 9.99925,6.36869309 C12.0019688,6.36869309 13.6319375,7.99863128 13.6319375,10.0009375 C13.6319375,12.0036499 12.002,13.6335569 9.99925,13.6335569 C7.996875,13.6335569 6.3669375,12.0036499 6.3669375,10.0009375 Z M11.3704688,14.9309075 L8.5080625,19.8900333 C3.6928125,19.1699531 0,15.0161872 0,10.0009375 C0,8.22009587 0.4661875,6.54772098 1.282625,5.0986544 L5.36521875,12.1697093 C6.18278125,13.9096142 7.95296875,15.118779 9.998875,15.118779 C10.4735625,15.118779 10.9323125,15.0534365 11.3700938,14.9323763 L11.3704688,14.9309075 L11.3704688,14.9309075 Z" id="ChromeLogo"></path>
        </g>
    </g>
</svg>