<svg xmlns="http://www.w3.org/2000/svg" height="24" viewBox="0 -960 960 960" width="24" fill="#787878"><path d="m392.232-108.078-15.231-119.423q-7.385-1.846-25.231-11.693-17.847-9.846-40.847-24.654l-109.922 46.077-88.268-153.536 95.999-72.462q-1.577-8.59-2.058-17.103-.48-8.512-.48-18.743 0-7.731.73-16.943.731-9.212 2.116-21.289l-96.307-71.846 88.268-151.959 110.845 46.5q13.654-11.27 30.232-20.866 16.577-9.596 34.539-16.173l15.615-120.538H567.96l15.231 119.807q18.616 6.846 33.443 15.827 14.827 8.981 29.673 21.943l112.885-46.5 88.268 151.959-99.961 74.657q1.961 9.651 2.25 17.42.288 7.77.288 17.52 0 9.365-.385 17.526-.384 8.161-2.461 18.724l98.384 72.539-88.268 153.536-111-47.269q-13.731 11.539-28.539 20.347-14.807 8.807-34.577 16.807L567.96-108.078H392.232Zm48.015-55.96h77.598l14.933-107.654q29.722-8 53.857-22.077 24.134-14.077 47.173-37.231l99.884 42.577 38.885-67.098L685-421q4.5-15.539 6.404-29.994 1.904-14.456 1.904-29.102 0-15.212-1.654-28.789Q690-522.461 685-538.231l88.346-66.961-38.077-67.193-102.154 43.193q-18.153-19.846-46.192-36.308t-54.615-23l-12.572-108.269h-79.121l-12.73 107.59q-31.616 7.717-55.52 21.179-23.903 13.461-48.557 37.808l-98.885-42.193-39.077 67.193 86.077 63.884q-5 15.039-7 30.046-2 15.008-2 31.116 0 15.031 1.75 29.531 1.75 14.5 6.365 30.423l-85.192 64.577 39.069 67.192 98.2-42q23.885 23.885 48.847 38 24.961 14.115 55.452 21.615l12.833 106.77Zm38.43-200.002q48.169 0 81.995-33.867 33.827-33.867 33.827-82.134 0-48.266-33.856-82.093-33.855-33.826-82.105-33.826-48.614 0-82.287 33.867-33.673 33.867-33.673 82.134 0 48.266 33.673 82.093 33.673 33.826 82.426 33.826Zm1.015-116.46Z"/></svg>